<?xml version="1.0" encoding="utf-8"?>
<!-- Generator: Adobe Illustrator 22.0.0, SVG Export Plug-In . SVG Version: 6.00 Build 0)  -->
<svg version="1.1" xmlns="http://www.w3.org/2000/svg" xmlns:xlink="http://www.w3.org/1999/xlink" x="0px" y="0px"
	 viewBox="0 0 2272 1872" style="enable-background:new 0 0 2272 1872;" xml:space="preserve">
<style type="text/css">
	.st0{fill:#FFFFFF;}
	.st1{filter:url(#Adobe_OpacityMaskFilter);}
	.st2{filter:url(#Adobe_OpacityMaskFilter_1_);}
	.st3{mask:url(#SVGID_1_);fill:url(#SVGID_2_);}
	.st4{fill:#CCCCCC;}
	.st5{filter:url(#Adobe_OpacityMaskFilter_2_);}
	.st6{filter:url(#Adobe_OpacityMaskFilter_3_);}
	.st7{mask:url(#SVGID_3_);fill:url(#SVGID_4_);}
	.st8{fill:#B6EEFF;}
	.st9{fill:#FFFAFB;}
	.st10{fill:#FCEEA3;}
	.st11{fill:#F2F2F2;}
	.st12{fill:#FFF7F8;}
	.st13{fill:#FFFFFC;}
	.st14{fill:#16243A;}
	.st15{fill:#2C3F4F;}
	.st16{fill:#FFF2F2;}
	.st17{fill:#76709D;}
	.st18{fill:#F9F2F2;}
	.st19{fill:#332A6C;}
	.st20{fill:#FF8E50;}
	.st21{fill:#FFB852;}
	.st22{fill:#E9E7E8;}
	.st23{fill:#B54331;}
	.st24{fill:#6B7F87;}
	.st25{opacity:0.1;fill:#FFFFFF;}
	.st26{fill:#C6C6C6;}
	.st27{fill:#FFC5B6;}
	.st28{fill:#F99D9B;}
	.st29{fill:#0074AF;}
	.st30{fill:#126282;}
	.st31{fill:#13517F;}
</style>
<g id="background">
	<g>
		<path class="st0" d="M2025.5,1289.7c-30.1,61.2-73.6,115.4-112.1,171.8c-24,35.3-46.1,71.4-61.8,110.6c-3.1,7.7-5.9,15.6-8.5,23.6
			l-1406.2,17c28.8-5.9,58.2-12,83.3-27.1c6.4-3.8,12.4-8.4,17.9-13.5c16.3-15.1,27.8-35.3,27.9-57.2c0.1-17.1-6.6-33.6-15.2-48.5
			c-1-1.7-1.9-3.3-2.9-4.9c-64.2-104.8-209.6-133.7-286.5-230.5c-50-62.9-64.7-147.7-60.8-228c4.9-101.5,39.6-205.3,113.7-274.9
			c39-36.6,86.9-62.2,132-91C509.8,596.6,570,547.3,607,481.7c30.6-54.2,44.6-118.2,85.1-165.5c67.3-78.7,184.5-87,288-83
			c57.5,2.3,119.3,8.3,162.7,46c48.5,42.2,60.4,111.5,88.6,169.2c38.6,78.8,112.8,139.3,197.7,161.2c77.1,19.9,158.6,9,237.6,18.5
			c145.6,17.5,280.4,109.1,350.3,238C2087,995.2,2090.3,1158.1,2025.5,1289.7z"/>
		<defs>
			<filter id="Adobe_OpacityMaskFilter" filterUnits="userSpaceOnUse" x="260.7" y="956" width="369.1" height="275.1">
				<feFlood  style="flood-color:white;flood-opacity:1" result="back"/>
				<feBlend  in="SourceGraphic" in2="back" mode="normal"/>
			</filter>
		</defs>
		<mask maskUnits="userSpaceOnUse" x="260.7" y="956" width="369.1" height="275.1" id="SVGID_1_">
			<g class="st1">
				<defs>
					<filter id="Adobe_OpacityMaskFilter_1_" filterUnits="userSpaceOnUse" x="260.7" y="956" width="369.1" height="275.1">
						<feFlood  style="flood-color:white;flood-opacity:1" result="back"/>
						<feBlend  in="SourceGraphic" in2="back" mode="normal"/>
					</filter>
				</defs>
				<mask maskUnits="userSpaceOnUse" x="260.7" y="956" width="369.1" height="275.1" id="SVGID_1_">
					<g class="st2">
					</g>
				</mask>
				<linearGradient id="SVGID_2_" gradientUnits="userSpaceOnUse" x1="445.2908" y1="932.9466" x2="445.2908" y2="1204.1091">
					<stop  offset="0" style="stop-color:#FFFFFF"/>
					<stop  offset="0.1638" style="stop-color:#FCFCFC"/>
					<stop  offset="0.2944" style="stop-color:#F2F2F2"/>
					<stop  offset="0.4136" style="stop-color:#E1E1E1"/>
					<stop  offset="0.526" style="stop-color:#C9C9C9"/>
					<stop  offset="0.6338" style="stop-color:#ABABAB"/>
					<stop  offset="0.7379" style="stop-color:#858585"/>
					<stop  offset="0.8391" style="stop-color:#585858"/>
					<stop  offset="0.9356" style="stop-color:#262626"/>
					<stop  offset="1" style="stop-color:#000000"/>
				</linearGradient>
				<path class="st3" d="M260.7,1196.8v-123.2c0-5.2,4.2-9.3,9.3-9.3h48.7c5.2,0,9.3,4.2,9.3,9.3v27.1c0,5.2,4.2,9.3,9.3,9.3l0,0
					c5.2,0,9.3-4.2,9.3-9.3V965.3c0-8.3,10.1-12.5,15.9-6.6l54.8,54.8c1.8,1.8,2.7,4.1,2.7,6.6v44.5c0,5.2,4.2,9.3,9.3,9.3h27.4
					c5.2,0,9.3-4.2,9.3-9.3v-83c0-5.2,4.2-9.3,9.3-9.3h54.3c5.2,0,9.3,4.2,9.3,9.3v155.2c0,5.2,4.2,9.3,9.3,9.3h6.4
					c5.2,0,9.3-4.2,9.3-9.3v-53.6c0-5.2,4.2-9.3,9.3-9.3h46.9c5.2,0,9.3,4.2,9.3,9.3v147.8"/>
			</g>
		</mask>
		<path class="st4" d="M260.7,1196.8v-123.2c0-5.2,4.2-9.3,9.3-9.3h48.7c5.2,0,9.3,4.2,9.3,9.3v27.1c0,5.2,4.2,9.3,9.3,9.3l0,0
			c5.2,0,9.3-4.2,9.3-9.3V965.3c0-8.3,10.1-12.5,15.9-6.6l54.8,54.8c1.8,1.8,2.7,4.1,2.7,6.6v44.5c0,5.2,4.2,9.3,9.3,9.3h27.4
			c5.2,0,9.3-4.2,9.3-9.3v-83c0-5.2,4.2-9.3,9.3-9.3h54.3c5.2,0,9.3,4.2,9.3,9.3v155.2c0,5.2,4.2,9.3,9.3,9.3h6.4
			c5.2,0,9.3-4.2,9.3-9.3v-53.6c0-5.2,4.2-9.3,9.3-9.3h46.9c5.2,0,9.3,4.2,9.3,9.3v147.8"/>
		<defs>
			<filter id="Adobe_OpacityMaskFilter_2_" filterUnits="userSpaceOnUse" x="1641.2" y="956" width="369.1" height="275.1">
				<feFlood  style="flood-color:white;flood-opacity:1" result="back"/>
				<feBlend  in="SourceGraphic" in2="back" mode="normal"/>
			</filter>
		</defs>
		<mask maskUnits="userSpaceOnUse" x="1641.2" y="956" width="369.1" height="275.1" id="SVGID_3_">
			<g class="st5">
				<defs>
					<filter id="Adobe_OpacityMaskFilter_3_" filterUnits="userSpaceOnUse" x="1641.2" y="956" width="369.1" height="275.1">
						<feFlood  style="flood-color:white;flood-opacity:1" result="back"/>
						<feBlend  in="SourceGraphic" in2="back" mode="normal"/>
					</filter>
				</defs>
				<mask maskUnits="userSpaceOnUse" x="1641.2" y="956" width="369.1" height="275.1" id="SVGID_3_">
					<g class="st6">
					</g>
				</mask>
				
					<linearGradient id="SVGID_4_" gradientUnits="userSpaceOnUse" x1="1884.833" y1="932.9466" x2="1884.833" y2="1204.1091" gradientTransform="matrix(-1 0 0 1 3710.5613 0)">
					<stop  offset="0" style="stop-color:#FFFFFF"/>
					<stop  offset="0.1638" style="stop-color:#FCFCFC"/>
					<stop  offset="0.2944" style="stop-color:#F2F2F2"/>
					<stop  offset="0.4136" style="stop-color:#E1E1E1"/>
					<stop  offset="0.526" style="stop-color:#C9C9C9"/>
					<stop  offset="0.6338" style="stop-color:#ABABAB"/>
					<stop  offset="0.7379" style="stop-color:#858585"/>
					<stop  offset="0.8391" style="stop-color:#585858"/>
					<stop  offset="0.9356" style="stop-color:#262626"/>
					<stop  offset="1" style="stop-color:#000000"/>
				</linearGradient>
				<path class="st7" d="M2010.3,1196.8v-123.2c0-5.2-4.2-9.3-9.3-9.3h-48.7c-5.2,0-9.3,4.2-9.3,9.3v27.1c0,5.2-4.2,9.3-9.3,9.3l0,0
					c-5.2,0-9.3-4.2-9.3-9.3V965.3c0-8.3-10.1-12.5-15.9-6.6l-54.8,54.8c-1.8,1.8-2.7,4.1-2.7,6.6v44.5c0,5.2-4.2,9.3-9.3,9.3h-27.4
					c-5.2,0-9.3-4.2-9.3-9.3v-83c0-5.2-4.2-9.3-9.3-9.3h-54.3c-5.2,0-9.3,4.2-9.3,9.3v155.2c0,5.2-4.2,9.3-9.3,9.3h-6.4
					c-5.2,0-9.3-4.2-9.3-9.3v-53.6c0-5.2-4.2-9.3-9.3-9.3h-46.9c-5.2,0-9.3,4.2-9.3,9.3v147.8"/>
			</g>
		</mask>
		<path class="st4" d="M2010.3,1196.8v-123.2c0-5.2-4.2-9.3-9.3-9.3h-48.7c-5.2,0-9.3,4.2-9.3,9.3v27.1c0,5.2-4.2,9.3-9.3,9.3l0,0
			c-5.2,0-9.3-4.2-9.3-9.3V965.3c0-8.3-10.1-12.5-15.9-6.6l-54.8,54.8c-1.8,1.8-2.7,4.1-2.7,6.6v44.5c0,5.2-4.2,9.3-9.3,9.3h-27.4
			c-5.2,0-9.3-4.2-9.3-9.3v-83c0-5.2-4.2-9.3-9.3-9.3h-54.3c-5.2,0-9.3,4.2-9.3,9.3v155.2c0,5.2-4.2,9.3-9.3,9.3h-6.4
			c-5.2,0-9.3-4.2-9.3-9.3v-53.6c0-5.2-4.2-9.3-9.3-9.3h-46.9c-5.2,0-9.3,4.2-9.3,9.3v147.8"/>
		<path class="st8" d="M447.2,1604.6l5,0C450.6,1604.7,448.9,1604.7,447.2,1604.6z"/>
		<path class="st9" d="M1913.4,1461.4c-24,35.3-46.1,71.4-61.8,110.6H538.1c16.3-15.1,27.8-35.3,27.9-57.2
			c0.1-17.1-6.6-33.6-15.2-48.5c-1-1.7-1.9-3.3-2.9-4.9H1913.4z"/>
		<circle class="st10" cx="807.1" cy="540.7" r="113.5"/>
		<path class="st11" d="M788.9,795.7h-24.5c-11.3-11.2-26.8-18.1-43.9-18.1c-2.8,0-5.6,0.2-8.3,0.5c-7.2-24.8-29.5-43.3-56.2-44.9
			c-1.3-0.1-2.6-0.1-3.9-0.1c-11.7,0-22.7,3.2-32.1,8.8c0,0,0,0,0,0c-5.2-15.1-19.6-26-36.4-26c-19.4,0-35.5,14.4-38.2,33
			c-4-1.9-8.5-3-13.2-3c-16.7,0-30.3,13.2-31,29.8c0,0,0,0,0,0c-15.2,1-28.6,8.6-37.3,19.9h-27.1c-5.3,0-9.6,4.3-9.6,9.6v0
			c0,5.3,4.3,9.6,9.6,9.6h17.8h87.7h12.1h38h32.2h38.7h48.3h65.8h11.3c5.3,0,9.6-4.3,9.6-9.6v0C798.5,799.9,794.2,795.7,788.9,795.7
			z"/>
		<path class="st11" d="M1688.9,780.5h-12.3c-5.6-5.6-13.4-9.1-22-9.1c-1.4,0-2.8,0.1-4.1,0.3c-3.6-12.4-14.8-21.7-28.2-22.5
			c-0.6,0-1.3-0.1-1.9-0.1c-5.9,0-11.4,1.6-16.1,4.4c0,0,0,0,0,0c-2.6-7.6-9.8-13-18.3-13c-9.7,0-17.8,7.2-19.1,16.5
			c-2-1-4.3-1.5-6.6-1.5c-8.4,0-15.2,6.6-15.5,14.9c0,0,0,0,0,0c-7.6,0.5-14.3,4.3-18.7,10h-13.6c-2.7,0-4.8,2.1-4.8,4.8l0,0
			c0,2.7,2.1,4.8,4.8,4.8h8.9h43.9h6.1h19h16.2h19.4h24.2h33h5.7c2.7,0,4.8-2.1,4.8-4.8l0,0C1693.7,782.7,1691.5,780.5,1688.9,780.5
			z"/>
		<path class="st11" d="M1015.6,507.9h-12.3c-5.6-5.6-13.4-9.1-22-9.1c-1.4,0-2.8,0.1-4.1,0.3c-3.6-12.4-14.8-21.7-28.2-22.5
			c-0.6,0-1.3-0.1-1.9-0.1c-5.9,0-11.4,1.6-16.1,4.4c0,0,0,0,0,0c-2.6-7.6-9.8-13-18.3-13c-9.7,0-17.8,7.2-19.1,16.5
			c-2-1-4.3-1.5-6.6-1.5c-8.4,0-15.2,6.6-15.5,14.9c0,0,0,0,0,0c-7.6,0.5-14.3,4.3-18.7,10h-13.6c-2.7,0-4.8,2.1-4.8,4.8l0,0
			c0,2.7,2.1,4.8,4.8,4.8h8.9h43.9h6.1h19h16.2h19.4H977h33h5.7c2.7,0,4.8-2.1,4.8-4.8l0,0C1020.4,510,1018.3,507.9,1015.6,507.9z"
			/>
		<path class="st12" d="M1909.5,1639.5H399.1c-18.6,0-33.7-15.1-33.7-33.7l0,0c0-18.6,15.1-33.7,33.7-33.7h1510.4
			c18.6,0,33.7,15.1,33.7,33.7l0,0C1943.2,1624.4,1928.1,1639.5,1909.5,1639.5z"/>
		<path class="st13" d="M1293,422.2c16.9,30.1,34.3,60.9,60.2,83.8c36.9,32.7,86.7,45.8,134.7,56.5c83.8,18.7,170.3,33.2,255.2,20.7
			c5.1-0.7,10.3-1.7,14.6-4.5c7-4.6,9.9-13.3,11.6-21.4c6.4-31.9-0.3-65-10.6-95.8c-7.4-22.1-16.8-44-32.2-61.4
			c-18.5-21-44.2-34-69.4-46.3c-89.7-43.7-183.8-84.6-283.5-89.1c-42-1.9-92,7.5-109.1,52C1251.6,350.3,1277,393.7,1293,422.2z"/>
	</g>
</g>
<g id="ambulance">
	<g>
		<g>
			<rect x="1527.5" y="1118.4" class="st14" width="41.9" height="12.2"/>
			<rect x="1505.3" y="999" class="st14" width="64.1" height="12.2"/>
			<path class="st15" d="M1572.1,985.8h-19c-7.2,0-13,8.6-13,19.1v118.8c0,10.6,5.8,19.1,13,19.1h19c7.2,0,13-8.6,13-19.1v-118.8
				C1585.1,994.4,1579.3,985.8,1572.1,985.8z"/>
		</g>
		<path class="st15" d="M946.6,1299.7c23.9,0,43.2,36.2,43.2,80.9c0,44.7-19.3,80.9-43.2,80.9h-47.4v-161.7H946.6z"/>
		<ellipse class="st14" cx="899.2" cy="1380.6" rx="43.2" ry="80.9"/>
		<path class="st15" d="M1671.9,1299.7c23.9,0,43.2,36.2,43.2,80.9c0,44.7-19.3,80.9-43.2,80.9h-47.4v-161.7H1671.9z"/>
		<ellipse class="st14" cx="1624.5" cy="1380.6" rx="43.2" ry="80.9"/>
		<path class="st16" d="M660.2,857.5h751.3c23.4,0,42.3,18.9,42.3,42.3v262.8l-65.8,98.4l-30.1,64.5H600.5V917.2
			C600.5,884.2,627.2,857.5,660.2,857.5z"/>
		<path class="st15" d="M1388,1265.2h317.5c5.3,0,9.6,4.3,9.6,9.6v50.7H1388V1265.2z"/>
		<path class="st15" d="M1308.1,1355.6h294.5c12.1,0,21.9,9.8,21.9,21.9l0,0c0,12.1-9.8,21.9-21.9,21.9H1330
			c-12.1,0-21.9-9.8-21.9-21.9l0,0C1308.1,1365.4,1296,1355.6,1308.1,1355.6z"/>
		<path class="st15" d="M714.6,1355.6h162.6c12.1,0,21.9,9.8,21.9,21.9l0,0c0,12.1-9.8,21.9-21.9,21.9H714.6
			c-12.1,0-21.9-9.8-21.9-21.9l0,0C692.7,1365.4,702.5,1355.6,714.6,1355.6z"/>
		<path class="st14" d="M580.9,1340.5L580.9,1340.5c0,8.3,6.7,15.1,15.1,15.1h1120.4c8.3,0,15.1-6.7,15.1-15.1l0,0
			c0-8.3-6.7-15.1-15.1-15.1H596C587.7,1325.4,580.9,1332.2,580.9,1340.5z"/>
		<path class="st16" d="M1126.7,857.5h313.5c7.5,0,13.6,6.1,13.6,13.6v46.2h-327.1V857.5z"/>
		<polygon class="st16" points="1213.5,1141.9 1540.6,1141.9 1705.5,1265.2 1388,1265.2 		"/>
		<path class="st16" d="M1171.5,917.3h309.9c10.1,0,18.9,6.9,21.2,16.7l38,208h-327.1L1171.5,917.3z"/>
		<path class="st17" d="M1196.5,947.3l27.3,163.3l1.8,7.6c1.5,6,6.8,10.3,13,10.3h263.9c5.9,0,10.8-3.8,12.6-8.9
			c0.8-2.3,1-5,0.4-7.6l-0.3-1.3L1486.5,941c-1.5-6-6.8-10.3-13-10.3h-263.9C1200.9,930.7,1194.5,938.8,1196.5,947.3z"/>
		<path class="st0" d="M1126.7,942.9v173.4c0,6.7,5.5,12.2,12.2,12.2h38.1c7.9,0,13.7-7.4,11.8-15L1159.2,940
			c-1.3-5.5-6.2-9.3-11.8-9.3h-8.4C1132.2,930.7,1126.7,936.1,1126.7,942.9z"/>
		<path class="st18" d="M600.5,917.3h526.2v-59.8H634c-18.5,0-33.5,15-33.5,33.5V917.3z"/>
		<path class="st19" d="M1099.6,1161.5l144,101.7c1.8,1.3,4,2,6.2,2h104.3c10.5,0,14.8-13.5,6.2-19.6l-144-101.7c-1.8-1.3-4-2-6.2-2
			h-104.3C1095.4,1141.9,1091.1,1155.4,1099.6,1161.5z"/>
		<path class="st19" d="M902.7,1161.5l144,101.7c1.8,1.3,4,2,6.2,2h96.3c10.5,0,14.8-13.5,6.2-19.6l-144-101.7c-1.8-1.3-4-2-6.2-2
			h-96.3C898.4,1141.9,894.1,1155.4,902.7,1161.5z"/>
		<path class="st19" d="M705.7,1161.5l144,101.7c1.8,1.3,4,2,6.2,2h96.3c10.5,0,14.8-13.5,6.2-19.6l-144-101.7c-1.8-1.3-4-2-6.2-2
			h-96.3C701.4,1141.9,697.1,1155.4,705.7,1161.5z"/>
		<path class="st19" d="M600.5,1152.7v101.7c0,5.9,4.8,10.8,10.8,10.8h144c10.5,0,14.8-13.5,6.2-19.6l-144-101.7c-1.8-1.3-4-2-6.2-2
			l0,0C605.3,1141.9,600.5,1146.7,600.5,1152.7z"/>
		<rect x="600.5" y="1265.2" class="st15" width="787.5" height="60.3"/>
		<path class="st20" d="M1154.6,901.3H1470c7.7,0,13.9-6.2,13.9-13.9v0c0-7.7-6.2-13.9-13.9-13.9h-315.4c-7.7,0-13.9,6.2-13.9,13.9
			v0C1140.7,895.1,1146.9,901.3,1154.6,901.3z"/>
		<path class="st21" d="M1159.8,880h302.6c4.1,0,7.4,3.3,7.4,7.4c0,4.1-3.3,7.4-7.4,7.4h-302.6c-4.1,0-7.4-3.3-7.4-7.4
			C1152.4,883.3,1155.7,880,1159.8,880z"/>
		<path class="st0" d="M1355,880h116.5c1.6,0,2.8,1.3,2.8,2.8c0,1.6-1.3,2.8-2.8,2.8H1355c-1.6,0-2.8-1.3-2.8-2.8
			C1352.2,881.3,1353.4,880,1355,880z"/>
		<path class="st0" d="M1177.6,880h116.5c1.6,0,2.8,1.3,2.8,2.8c0,1.6-1.3,2.8-2.8,2.8h-116.5c-1.6,0-2.8-1.3-2.8-2.8
			C1174.8,881.3,1176.1,880,1177.6,880z"/>
		<path class="st14" d="M1297,887.4c0-6.4-4.3-11.8-10.2-13.4c1.2-0.3,2.4-0.5,3.7-0.5h61.5c7.7,0,13.9,6.2,13.9,13.9
			c0,7.7-6.2,13.9-13.9,13.9h-61.5c-1.3,0-2.5-0.2-3.7-0.5C1292.7,899.1,1297,893.8,1297,887.4z"/>
		<path class="st14" d="M1168.1,1330.5h177.8c-4.8-11.3-11.6-21.5-19.8-30.1c-17.6-18.6-42.1-30.1-69.1-30.1
			c-27,0-51.5,11.5-69.1,30.1C1179.7,1309.1,1173,1319.3,1168.1,1330.5z"/>
		<path class="st14" d="M1283.3,1299.7c23.9,0,43.2,36.2,43.2,80.9c0,44.7-19.3,80.9-43.2,80.9h-47.4v-161.7H1283.3z"/>
		<ellipse class="st15" cx="1235.9" cy="1380.6" rx="43.2" ry="80.9"/>
		<ellipse class="st22" cx="1235.9" cy="1380.6" rx="22.3" ry="41.8"/>
		<path class="st14" d="M600.7,1330.5h177.8c-4.8-11.3-11.6-21.5-19.8-30.1c-17.6-18.6-42.1-30.1-69.1-30.1
			c-27,0-51.5,11.5-69.1,30.1C612.3,1309.1,605.5,1319.3,600.7,1330.5z"/>
		<path class="st14" d="M715.8,1299.7c23.9,0,43.2,36.2,43.2,80.9c0,44.7-19.3,80.9-43.2,80.9h-47.4v-161.7H715.8z"/>
		<ellipse class="st15" cx="668.4" cy="1380.6" rx="43.2" ry="80.9"/>
		<ellipse class="st22" cx="668.4" cy="1380.6" rx="22.3" ry="41.8"/>
		<path class="st20" d="M1681.6,1316.6h18.6c4.2,0,7.6-3.4,7.6-7.6v-25.6c0-4.2-3.4-7.6-7.6-7.6h-18.6c-4.2,0-7.6,3.4-7.6,7.6v25.6
			C1674,1313.2,1677.4,1316.6,1681.6,1316.6z"/>
		<path class="st22" d="M1673.2,1316.6h18.6c4.2,0,7.6-3.4,7.6-7.6v-25.6c0-4.2-3.4-7.6-7.6-7.6h-18.6c-4.2,0-7.6,3.4-7.6,7.6v25.6
			C1665.6,1313.2,1669,1316.6,1673.2,1316.6z"/>
		<path class="st0" d="M1669.9,1298.5h10.3c2.3,0,4.2-1.9,4.2-4.2v-14.2c0-2.3-1.9-4.2-4.2-4.2h-10.3c-2.3,0-4.2,1.9-4.2,4.2v14.2
			C1665.6,1296.6,1667.5,1298.5,1669.9,1298.5z"/>
		<path class="st0" d="M1684.9,1316.6h10.3c2.3,0,4.2-1.9,4.2-4.2v-14.2c0-2.3-1.9-4.2-4.2-4.2h-10.3c-2.3,0-4.2,1.9-4.2,4.2v14.2
			C1680.7,1314.7,1682.5,1316.6,1684.9,1316.6z"/>
		<path class="st20" d="M1405.1,1316.6h19.2c4,0,7.3-3.3,7.3-7.3v-26.2c0-4-3.3-7.3-7.3-7.3h-19.2c-4,0-7.3,3.3-7.3,7.3v26.2
			C1397.8,1313.4,1401,1316.6,1405.1,1316.6z"/>
		<path class="st22" d="M1414.5,1316.6h19.2c4,0,7.3-3.3,7.3-7.3v-26.2c0-4-3.3-7.3-7.3-7.3h-19.2c-4,0-7.3,3.3-7.3,7.3v26.2
			C1407.2,1313.4,1410.5,1316.6,1414.5,1316.6z"/>
		<path class="st23" d="M625.3,876.8v27.5c0,2.6,1,4.9,2.7,6.5c1.7,1.7,4,2.7,6.5,2.7H662c5.1,0,9.2-4.1,9.2-9.2v-27.5
			c0-2.6-1-4.9-2.7-6.5c-1.7-1.7-4-2.7-6.5-2.7h-27.5C629.4,867.6,625.3,871.7,625.3,876.8z"/>
		<polygon class="st19" points="1444.8,1219 1421.3,1204.8 1445.3,1196.1 1407.7,1185.7 1411.4,1172.2 1449,1182.6 1433,1162.8 
			1460.4,1162.6 1477.9,1184.2 1503.9,1174.6 1527.4,1188.9 1503.4,1197.6 1541,1208 1537.3,1221.5 1499.7,1211.1 1515.8,1230.9 
			1488.3,1231.1 1470.8,1209.5 		"/>
		<path class="st24" d="M1196.5,947.3l6.7,27.7l22.5,143.3c1.5,6,6.8,10.3,13,10.3h215.2V930.7h-244.3
			C1200.9,930.7,1194.5,938.8,1196.5,947.3z"/>
		<path class="st24" d="M1126.7,942.9v173.4c0,6.7,5.5,12.2,12.2,12.2h38.1c3.3,0,6.3-1.3,8.4-3.4c3-2.9,4.5-7.2,3.4-11.6
			L1159.2,940c-1.3-5.5-6.2-9.3-11.8-9.3h-8.4C1132.2,930.7,1126.7,936.1,1126.7,942.9z"/>
		<path class="st14" d="M1208.5,994.8l17.2,123.4c1.5,6,6.8,10.3,13,10.3h214.1c0.3,0,0.5,0,0.8,0c0.1,0,0.2,0,0.3,0l12.2,0
			c0,0-28.5-133.7-39.2-133.7H1208.5z"/>
		<path class="st15" d="M1223.8,1110.6l1.8,7.6c1.5,6,6.8,10.3,13,10.3h263.9c8.7,0,15.1-8.1,13-16.6l-0.3-1.3H1223.8z"/>
		<path class="st15" d="M1466,1082.2c16.5,0,29.9,10.4,29.9,23.2c0,12.8-13.4,23.2-29.9,23.2c-16.5,0-29.9-10.4-29.9-23.2
			C1436.2,1092.5,1449.6,1082.2,1466,1082.2z M1466,1120.5c10.8,0,19.6-6.8,19.6-15.2c0-8.4-8.8-15.2-19.6-15.2
			c-10.8,0-19.6,6.8-19.6,15.2C1446.5,1113.7,1455.2,1120.5,1466,1120.5z"/>
		<ellipse class="st15" cx="1466" cy="1110.6" rx="13.4" ry="9"/>
		<g>
			<path class="st15" d="M740.3,961.8v135.6c0,5.3,6.1,9.6,13.5,9.6h204.4c7.5,0,13.5-4.3,13.5-9.6V961.8c0-5.3-6.1-9.6-13.5-9.6
				H753.8C746.4,952.2,740.3,956.5,740.3,961.8z"/>
			<path class="st25" d="M740.3,983.9v113.5c0,5.3,6.1,9.6,13.5,9.6h48L740.3,983.9z"/>
			<path class="st25" d="M877.3,952.2l77.6,154.7h3.4c7.5,0,13.5-4.3,13.5-9.6v-76.6L932,952.2H877.3z"/>
			<polygon class="st25" points="800.3,952.2 877.9,1107 930.5,1107 855,952.2 			"/>
		</g>
		<path class="st25" d="M1210.1,930.7l120.2,197.8h172.2c5.9,0,10.8-3.8,12.6-8.9l-61.4-123.8l-54.3-65.1H1210.1z"/>
		<path class="st25" d="M1126.7,982.1v134.2c0,6.7,5.5,12.2,12.2,12.2h38.1c3.3,0,6.3-1.3,8.4-3.4L1126.7,982.1z"/>
		<g>
			<polygon class="st14" points="1127.5,1118.4 1207.9,1118.4 1211.2,1130.6 1127.5,1130.6 			"/>
			<polygon class="st14" points="1127.5,998.2 1191,998.2 1193.9,1010.4 1127.5,1010.4 			"/>
			<path class="st14" d="M1124.8,985.8h19c7.2,0,13,5.8,13,13v131c0,7.2-5.8,13-13,13h-19c-7.2,0-13-5.8-13-13v-131
				C1111.8,991.6,1117.6,985.8,1124.8,985.8z"/>
		</g>
		<path class="st14" d="M1459.1,1306.2h190c5,0,9.1-4.1,9.1-9.1l0,0c0-5-4.1-9.1-9.1-9.1h-190c-5,0-9.1,4.1-9.1,9.1l0,0
			C1450,1302.1,1454.1,1306.2,1459.1,1306.2z"/>
		<path class="st14" d="M1493.5,1317.5h121.2c7.7,0,14-6.3,14-14v-12.7c0-7.7-6.3-14-14-14h-121.2c-7.7,0-14,6.3-14,14v12.7
			C1479.5,1311.2,1485.7,1317.5,1493.5,1317.5z"/>
		<path class="st15" d="M1539.2,1324.7h29.7c7.5,0,13.6-6.1,13.6-13.6v-29.7c0-7.5-6.1-13.6-13.6-13.6h-29.7
			c-7.5,0-13.6,6.1-13.6,13.6v29.7C1525.7,1318.6,1531.7,1324.7,1539.2,1324.7z"/>
		<path class="st0" d="M1545.4,1312.9h17.5c4.4,0,8-3.6,8-8v-17.5c0-4.4-3.6-8-8-8h-17.5c-4.4,0-8,3.6-8,8v17.5
			C1537.4,1309.4,1541,1312.9,1545.4,1312.9z"/>
		<path class="st22" d="M1559.7,1314.2l12.4-12.4c3.1-3.1,3.1-8.1,0-11.3l-12.4-12.4c-3.1-3.1-8.1-3.1-11.3,0l-12.4,12.4
			c-3.1,3.1-3.1,8.1,0,11.3l12.4,12.4C1551.6,1317.3,1556.6,1317.3,1559.7,1314.2z"/>
		<path class="st23" d="M619.3,952.2h-18.8v217.6h18.8c9.5,0,17.2-7.7,17.2-17.2V969.5C636.5,959.9,628.8,952.2,619.3,952.2z"/>
		<path class="st0" d="M1411.4,1298.5h10.3c2.3,0,4.2-1.9,4.2-4.2v-14.2c0-2.3-1.9-4.2-4.2-4.2h-10.3c-2.3,0-4.2,1.9-4.2,4.2v14.2
			C1407.2,1296.6,1409.1,1298.5,1411.4,1298.5z"/>
		<path class="st0" d="M1426.5,1316.6h10.3c2.3,0,4.2-1.9,4.2-4.2v-14.2c0-2.3-1.9-4.2-4.2-4.2h-10.3c-2.3,0-4.2,1.9-4.2,4.2v14.2
			C1422.2,1314.7,1424.1,1316.6,1426.5,1316.6z"/>
		<ellipse class="st24" cx="1246.4" cy="1380.6" rx="8.6" ry="14.6"/>
		<path class="st0" d="M1241.8,1373c-1.7,2.7-1.8,5.7-0.3,6.7c1.6,1,4.2-0.3,6-3c1.7-2.7,1.8-5.7,0.3-6.7
			C1246.2,1369,1243.5,1370.3,1241.8,1373z"/>
		<path class="st26" d="M1220.4,1380.6c0,3.8,1.8,6.8,4,6.8c2.2,0,4-3,4-6.8c0-3.8-1.8-6.8-4-6.8
			C1222.2,1373.8,1220.4,1376.8,1220.4,1380.6z"/>
		<path class="st26" d="M1233.1,1351.1c-2.7,2.7-3.5,6.1-2,7.6s5,0.7,7.6-2c2.7-2.7,3.5-6.1,2-7.6S1235.7,1348.4,1233.1,1351.1z"/>
		<path class="st26" d="M1238.7,1404.4c2.7,2.7,3.5,6.1,2,7.6s-5,0.7-7.6-2c-2.7-2.7-3.5-6.1-2-7.6S1236,1401.8,1238.7,1404.4z"/>
		<ellipse class="st24" cx="677.2" cy="1380.6" rx="8.6" ry="14.6"/>
		<path class="st0" d="M672.5,1373c-1.7,2.7-1.8,5.7-0.3,6.7c1.6,1,4.2-0.3,6-3c1.7-2.7,1.8-5.7,0.3-6.7
			C676.9,1369,674.2,1370.3,672.5,1373z"/>
		<path class="st26" d="M651.2,1380.6c0,3.8,1.8,6.8,4,6.8s4-3,4-6.8c0-3.8-1.8-6.8-4-6.8S651.2,1376.8,651.2,1380.6z"/>
		<path class="st26" d="M663.8,1351.1c-2.7,2.7-3.5,6.1-2,7.6s5,0.7,7.6-2c2.7-2.7,3.5-6.1,2-7.6S666.5,1348.4,663.8,1351.1z"/>
		<path class="st26" d="M669.4,1404.4c2.7,2.7,3.5,6.1,2,7.6s-5,0.7-7.6-2c-2.7-2.7-3.5-6.1-2-7.6S666.8,1401.8,669.4,1404.4z"/>
		<path class="st20" d="M601.1,1006.6L601.1,1006.6v-54.4l0,0c9.6,0,17.4,7.8,17.4,17.4v19.5C618.5,998.8,610.7,1006.6,601.1,1006.6
			z"/>
		<path class="st20" d="M601.1,1061L601.1,1061v-54.4l0,0c9.6,0,17.4,7.8,17.4,17.4v19.5C618.5,1053.2,610.7,1061,601.1,1061z"/>
		<path class="st20" d="M601.1,1115.4L601.1,1115.4V1061l0,0c9.6,0,17.4,7.8,17.4,17.4v19.5C618.5,1107.6,610.7,1115.4,601.1,1115.4
			z"/>
		<path class="st20" d="M601.1,1169.8L601.1,1169.8v-54.4l0,0c9.6,0,17.4,7.8,17.4,17.4v19.5C618.5,1162,610.7,1169.8,601.1,1169.8z
			"/>
		<path class="st20" d="M629.8,879.4v21.7c0,2,0.8,3.8,2.1,5.2l32.1-32.1c-1.3-1.3-3.1-2.1-5.2-2.1h-21.7
			C633,872.1,629.8,875.4,629.8,879.4z"/>
	</g>
</g>
<g id="doctor">
	<g>
		<g>
			<g>
				<g>
					
						<ellipse transform="matrix(0.2997 -0.954 0.954 0.2997 54.043 1487.2917)" class="st27" cx="1040.1" cy="706.8" rx="26" ry="21.5"/>
				</g>
				<g>
					
						<ellipse transform="matrix(0.2997 -0.954 0.954 0.2997 54.0298 1487.2751)" class="st28" cx="1040.1" cy="706.8" rx="15.6" ry="12.9"/>
				</g>
				<g>
					
						<ellipse transform="matrix(0.954 -0.2997 0.2997 0.954 -170.6046 301.1855)" class="st27" cx="896.7" cy="706.8" rx="21.5" ry="26"/>
				</g>
				<g>
					<path class="st28" d="M901.4,721.7c-6.8,2.1-14.4-2.8-17-11c-2.6-8.2,0.8-16.6,7.7-18.8c6.8-2.1,14.4,2.8,17,11
						C911.6,711.2,908.2,719.6,901.4,721.7z"/>
				</g>
				<g>
					<path class="st29" d="M1049.5,1216.2l-4.6,142.5l-1.5,46.3l-0.8,26.3l-1.5,46.3l-2.1,66.7H1005l-6.7-66.7l-4.7-46.3l-2.7-26.3
						l-4.7-46.3l-13.4-132.9h-7.6l-16.9-114.1l20-1.1l76-4.3l20.2,38.6C1064.5,1144.9,1069.9,1182.4,1049.5,1216.2z"/>
				</g>
				<g>
					<path class="st29" d="M887.2,1216.2l18.6,142.5l6,46.3l3.4,26.3l6,46.3l8.7,66.7h33.9v-318.5h7.6l16.9-114.1l-20-1.1l-75.9-4.3
						l-20.2,38.6C872.2,1144.9,866.9,1182.4,887.2,1216.2z"/>
				</g>
				<g>
					<polyline class="st30" points="1004.6,805.5 925.2,809.6 951.3,837.2 995.4,817.7 					"/>
				</g>
				<g>
					<path class="st20" d="M926.4,828.8h42l36.2-6.5c0,0,60.2,9.9,86,50.4l-22.1,277.1c0,11.7-9.5,21.2-21.2,21.2h-78.9h-78.9
						c-11.7,0-21.2-9.5-21.2-21.2L853.7,864C879.6,823.5,926.4,828.8,926.4,828.8z"/>
				</g>
				<g>
					<path class="st27" d="M966,800.6L966,800.6c38.3,0,69.3-31,69.3-69.3V611.9c0-1-0.8-1.9-1.9-1.9H898.6c-1,0-1.9,0.8-1.9,1.9
						v119.4C896.7,769.6,927.7,800.6,966,800.6z"/>
				</g>
				<g>
					<path class="st23" d="M1025,677.7c-1.5-3.1-4.4-8.1-11.9-11c-7.2-2.8-18.8-3.5-30.4,4.8c-2.4,1.8-1.1,3.5,1.6,2.6
						c13.2-4.1,26.6-2,36.9,4.5C1023.2,679.9,1025.7,679.5,1025,677.7z"/>
				</g>
				<g>
					<path class="st23" d="M908.1,677.7c1.5-3.1,4.4-8.1,11.9-11c7.2-2.8,18.8-3.5,30.4,4.8c2.4,1.8,1.1,3.5-1.6,2.6
						c-13.2-4.1-26.6-2-36.9,4.5C909.9,679.9,907.4,679.5,908.1,677.7z"/>
				</g>
				<g>
					<path class="st27" d="M925.2,828.8l36.4,29.5l43-36c-10.5-2.2-12.7-12.1-12.4-21.1c0.1-2.9,0.4-5.7,0.9-8.1
						c0.8-4.8,1.9-8.2,1.9-8.2h-56.4C951.3,804.4,925.2,828.8,925.2,828.8z"/>
				</g>
				<g>
					<polygon class="st20" points="1004.6,824.1 1004.6,805.5 968.4,827.7 968.4,864 					"/>
				</g>
				<g>
					<polygon class="st20" points="925.2,831.3 925.2,809.6 968.4,827.7 968.4,864 					"/>
				</g>
				<g>
					<g>
						<g>
							<rect x="967" y="827.7" class="st23" width="2.7" height="6.8"/>
						</g>
					</g>
					<g>
						<g>
							<path class="st23" d="M967,1159.5h2.7v-13.3H967V1159.5z M967,1141.4h2.7v-13.3H967V1141.4z M967,1123.3h2.7v-13.3H967
								V1123.3z M967,1105.3h2.7V1092H967V1105.3z M967,1087.2h2.7V1074H967V1087.2z M967,1069.2h2.7v-13.3H967V1069.2z M967,1051.1
								h2.7v-13.3H967V1051.1z M967,1033.1h2.7v-13.3H967V1033.1z M967,1015h2.7v-13.3H967V1015z M967,997h2.7v-13.3H967V997z
								 M967,978.9h2.7v-13.3H967V978.9z M967,960.9h2.7v-13.3H967V960.9z M967,942.8h2.7v-13.3H967V942.8z M967,924.7h2.7v-13.3
								H967V924.7z M967,906.7h2.7v-13.3H967V906.7z M967,888.6h2.7v-13.3H967V888.6z M967,870.6h2.7v-13.3H967V870.6z M967,852.5
								h2.7v-13.3H967V852.5z"/>
						</g>
					</g>
					<g>
						<g>
							<rect x="967" y="1164.2" class="st23" width="2.7" height="6.8"/>
						</g>
					</g>
				</g>
				<g>
					<path class="st20" d="M919.2,973l41.8,9.4c163.1,34.2,188-0.6,176.1-40.1c-4-13.2-12-26.8-20.4-38.7
						c-13.3-18.8-27.5-33-27.5-33l-24.4,27.7l-11.3,12.8l-6.9,7.9c-25.2,35.3-116.5,17.6-116.5,17.6L919.2,973z"/>
				</g>
				<g>
					<path class="st20" d="M1001.4,1007.4l46.5-12.2l-12.1-47.5c0,0-101.5,23-129.4-23l-12.4-15.5l-16-19.9l-22.3-27.8
						c0,0-10.2,11.8-21.6,28.9c-6.8,10.3-14.1,22.6-19.8,35.4C789.1,982.3,794.6,1049.6,1001.4,1007.4z"/>
				</g>
				<g>
					<path class="st27" d="M930,963.9L884.3,939c21.1-9.2,55.3-10.8,55.3-10.8L930,963.9z"/>
				</g>
				<g>
					<path class="st27" d="M1018.5,932.1c0,0,48,10.5,26.6,21.2c-17.4,8.7-42.1,17.1-57.9-9.5C987.2,943.8,999.3,930.4,1018.5,932.1
						z"/>
				</g>
				<g>
					<path class="st27" d="M1068.5,982.6"/>
				</g>
				<g>
					<path class="st23" d="M1080.8,996.2c0,0-57.9,15.5-150.8-32.3c0,0,66.3,88.4,148.9,55.9"/>
				</g>
				<g>
					<path class="st23" d="M861.6,1018.6c0,0,52.4-3.6,89.7-34.2c0,0-23.7,45.1-88.9,52.3"/>
				</g>
				<g>
					<polygon class="st29" points="889.2,925.7 1027.7,925.7 1033.1,898.5 889.2,898.5 					"/>
				</g>
				<g>
					<path class="st23" d="M1018.4,932.1c0,0,28.9-8.6,14.7-47"/>
				</g>
				<g>
					<path class="st27" d="M1032.8,936.1c0,0,7.4,0.5,6.9-3.1c-0.5-3.6-27.9-0.9-27.9-0.9S1023.2,943.4,1032.8,936.1z"/>
				</g>
				<g>
					<path class="st29" d="M1053.5,911.1l83.6,31.2c-4-13.2-12-26.8-20.4-38.7l-51.9-5.3L1053.5,911.1z"/>
				</g>
				<g>
					<path class="st29" d="M814.2,925.7l67.2-14l-3.5-22.5l-43.9,1.1C827.1,900.6,819.9,912.8,814.2,925.7z"/>
				</g>
				<g>
					<path class="st23" d="M884.3,939c0,0-17.1-35.3,23.8-57L884.3,939z"/>
				</g>
				<g>
					<path class="st14" d="M970.6,1572.1c-10,0-14.6-16.7-7.1-25.8c4.7-5.6,10.4-10.2,17.2-10.9c19.8-2,33.3,8.9,33.3,8.9h24.9v27.8
						H970.6z"/>
				</g>
				<g>
					<path class="st14" d="M897.7,1572.1c-9.6,0-14.1-16.7-6.9-25.8c4.5-5.6,10.1-10.2,16.7-10.9c19.2-2,32.3,8.9,32.3,8.9h24.1
						v27.8H897.7z"/>
				</g>
				<g>
					<path class="st31" d="M1021.1,849.9c0.3-0.4,8.4-11,4.9-21.8c-2.4-7.3-10-13-21.3-16.3l0,5.7c9.4,2.8,14.4,6.7,16.1,12.2
						c2.6,8.1-3.9,16.8-4,16.9L1021.1,849.9z"/>
				</g>
				<g>
					<path class="st0" d="M1013.8,908.5c0.3-0.3,7.5-8.3,13.9-18.4c8.9-14.2,11.5-25.3,7.8-33c-4-8.3-13.1-12.9-22.1-11.2
						c-7.7,1.5-26,10.1-28.9,57.4l5.4,0.3c2.7-44.7,19.4-51.4,24.5-52.4c6.6-1.3,13.3,2.1,16.2,8.2c5.9,12.2-13,36.9-20.8,45.4
						L1013.8,908.5z"/>
				</g>
				<g>
					<path class="st0" d="M1003.4,904.3c0,3.3,2.7,6,6,6s6-2.7,6-6c0-3.3-2.7-6-6-6S1003.4,901,1003.4,904.3z"/>
				</g>
				<g>
					<path class="st0" d="M984.2,904.3c0,3.3,2.7,6,6,6s6-2.7,6-6c0-3.3-2.7-6-6-6S984.2,901,984.2,904.3z"/>
				</g>
				<g>
					<path class="st31" d="M941.7,908.8l3.4-4.2c-23.2-18.8-34.8-37.4-34.5-55.2c0.3-20.1,13-29.6,14.6-31.1v-7.1
						c-0.7,0.6-19.7,15.2-20,38C904.8,868.8,917.1,888.9,941.7,908.8z"/>
				</g>
				<g>
					<circle class="st0" cx="943.4" cy="906.7" r="11.4"/>
				</g>
				<g>
					<circle class="st29" cx="943.4" cy="906.7" r="6.6"/>
				</g>
				<path class="st14" d="M993.3,698.6c0,7,3.2,12.7,7.2,12.7c4,0,7.2-5.6,7.2-12.6v-0.1c0-5.3-1.9-9.9-4.5-11.8
					c-0.8-0.6-1.8-0.9-2.7-0.9C996.6,685.9,993.3,691.6,993.3,698.6z"/>
				<ellipse class="st14" cx="929.8" cy="698.6" rx="7.2" ry="12.7"/>
				<ellipse class="st27" cx="1000.6" cy="718.3" rx="17" ry="12.7"/>
				<ellipse class="st28" cx="1014.7" cy="725.5" rx="14.5" ry="10.8"/>
				<ellipse class="st27" cx="929.5" cy="718.3" rx="17" ry="12.7"/>
				<path class="st0" d="M1003.3,690c1.4,1.8,2.4,4.6,2.7,7.7c0.1,1.2-1.2,2-2.2,1.3c-2.2-1.6-4.3-4.3-3-8.6
					C1001.2,689.4,1002.7,689.1,1003.3,690z"/>
				<path class="st0" d="M932.4,690c1.4,1.8,2.4,4.6,2.7,7.7c0.1,1.2-1.2,2-2.2,1.3c-2.2-1.6-4.3-4.3-3-8.6
					C930.3,689.4,931.7,689.1,932.4,690z"/>
				<path class="st23" d="M1035.3,682.6c0,0-17.3-31.5-14.9-52c0,0-24.6,20-54.4,20l8.1-15c0,0-32.6,17.3-61.6,14.5l6-12.3
					l-32.6,18.8c0,0-11.5-52.8,22.1-70.1c33.6-17.3,111.7-27.2,127.3,12.7C1035.3,599.2,1078.1,613.8,1035.3,682.6z"/>
				<path class="st23" d="M896.7,681.4c0,0,13.9-18.4,3.3-54.4l-6.5,15.4C893.6,642.3,885.3,654.6,896.7,681.4z"/>
				<ellipse class="st28" cx="917.3" cy="725.5" rx="14.5" ry="10.8"/>
				<path class="st23" d="M896.7,682.6c0,0-5.4,57.5,24.5,71.8c0,0,13.5-23.3,44.8-23.3c31.4,0,44.8,23.3,44.8,23.3
					c29.9-14.2,24.5-71.8,24.5-71.8c10.5,45.7,1.3,94.4-20.6,108.7c-14.3,9.3-30.7,13.4-40.4,15.1c-5.5,1-11.2,1-16.7,0
					c-9.6-1.7-26-5.8-40.4-15.1C895.4,777,886.2,728.2,896.7,682.6z"/>
				<path class="st27" d="M964.9,744.8c11.4,0,17.2,6.6,19.4,10c0.7,1.1,0.5,2.5-0.6,3.2c-10.2,7.5-18.8,7.3-18.8,7.3
					s-8.7,0.2-18.8-7.3c-1-0.8-1.3-2.2-0.6-3.2C947.7,751.4,953.5,744.8,964.9,744.8z"/>
				<path class="st28" d="M962.5,688.2c1.7-3.2,6.3-3.1,7.8,0.2c6.8,15.3,18.4,47.8-5.6,47.8C940.5,736.3,954.7,703.4,962.5,688.2z"
					/>
				<path class="st23" d="M1035.3,599.2c0,0,5.9-5.9,0-20.2l-5.9,27.5l25-4.8C1054.3,601.7,1046.9,596.3,1035.3,599.2z"/>
				<polygon class="st20" points="905.8,1358.7 911.8,1405 963.9,1405 963.9,1358.7 				"/>
				<polygon class="st20" points="915.3,1431.3 921.3,1477.6 963.9,1477.6 963.9,1431.3 				"/>
			</g>
			<polygon class="st20" points="1044.9,1358.7 1043.5,1405 990.9,1405 986.3,1358.7 			"/>
			<polygon class="st20" points="1042.6,1431.3 1041.1,1477.6 998.3,1477.6 993.6,1431.3 			"/>
		</g>
		<path class="st0" d="M951.6,758c6.3,2.7,16.8,5.2,27.5,0c1.6-0.8,1-3.2-0.7-3.2h-26.2C950.4,754.8,949.9,757.3,951.6,758z"/>
	</g>
</g>
</svg>
